<svg width="4" height="4" viewBox="0 0 4 4" fill="none" xmlns="http://www.w3.org/2000/svg">
<path fill-rule="evenodd" clip-rule="evenodd" d="M3.45202 0.593195C3.51203 0.533712 3.59303 0.500234 3.67753 0.500001C3.76202 0.499768 3.84321 0.532798 3.90355 0.59195C3.96388 0.651101 3.99851 0.731622 3.99995 0.816104C4.00139 0.900586 3.96953 0.98224 3.91124 1.04341L2.19956 3.18302C2.17014 3.21471 2.13463 3.24014 2.09516 3.25779C2.05569 3.27544 2.01307 3.28495 1.96984 3.28575C1.92661 3.28655 1.88366 3.27862 1.84356 3.26245C1.80347 3.24627 1.76705 3.22217 1.73647 3.1916L0.602353 2.05705C0.570758 2.02761 0.545416 1.9921 0.52784 1.95266C0.510263 1.91321 0.500812 1.87063 0.50005 1.82745C0.499288 1.78427 0.507231 1.74138 0.523405 1.70133C0.539579 1.66129 0.563653 1.62492 0.59419 1.59438C0.624727 1.56384 0.661102 1.53977 0.701145 1.52359C0.741188 1.50742 0.784078 1.49948 0.827258 1.50024C0.870437 1.501 0.91302 1.51045 0.952468 1.52803C0.991915 1.5456 1.02742 1.57095 1.05686 1.60254L1.95472 2.49998L3.44387 0.602629C3.44653 0.599307 3.44939 0.596156 3.45245 0.593195H3.45202Z" fill="#00C48C"/>
</svg>
